<svg width="280" height="143" viewBox="0 0 280 143" fill="none" xmlns="http://www.w3.org/2000/svg">
<g clip-path="url(#clip0_801_4697)">
<path d="M69.4508 52.6403L69.4746 90.3837H69.4508C59.0379 90.3837 50.5835 81.9326 50.5835 71.5239C50.5835 61.1152 59.0141 52.6403 69.4508 52.6403Z" fill="#E8D333"/>
<path d="M40.3139 68.301H46.6428C47.2399 63.598 49.1744 59.3247 52.0164 55.8631L47.5742 51.4227C43.5858 56.0302 40.9826 61.8791 40.3139 68.301ZM47.5504 91.6012L51.9925 87.1608C49.1505 83.6753 47.2399 79.402 46.6189 74.7229H40.29C40.9826 81.1209 43.5858 86.9698 47.5504 91.6012ZM69.4746 102.32V96.0416C64.722 95.8028 60.3276 94.1795 56.6974 91.5534L52.2075 96.0416C57.0318 99.7658 63.0024 102.058 69.4746 102.32ZM52.2075 46.9584L56.6974 51.4466C60.3515 48.8205 64.7459 47.1972 69.4746 46.9584V40.6798C63.0024 40.9424 57.0318 43.2342 52.2075 46.9584Z" fill="#EB9649"/>
<path d="M26.7485 68.301H33.0535C33.7461 59.8738 37.1614 52.2105 42.3917 46.2184L37.9256 41.7541C31.334 49.1547 27.4411 58.3936 26.7485 68.301ZM37.9017 101.246L42.3678 96.7816C37.1375 90.7895 33.7461 83.1262 33.0297 74.699H26.7485C27.4411 84.6063 31.334 93.8452 37.9017 101.246ZM69.4746 115.999V109.721C60.9723 109.434 53.1866 106.307 47.001 101.246L42.5111 105.71C50.1057 112.132 59.4916 115.713 69.4746 115.999ZM42.5111 37.2898L46.9771 41.7541C53.1627 36.693 60.9723 33.5656 69.4507 33.2791V27.0005C59.4916 27.287 50.1057 30.8679 42.5111 37.2898Z" fill="#E16937"/>
<path d="M17.9835 49.0115C15.4042 55.1469 13.9474 61.6165 13.5891 68.2771H19.8702C20.6106 56.2212 25.4588 45.2873 33.0296 36.8601L28.5635 32.3958C24.0975 37.3137 20.5628 42.8761 17.9835 49.0115ZM17.9835 93.9885C20.539 100.124 24.0975 105.686 28.5635 110.58L33.0296 106.116C25.4588 97.7127 20.6106 86.7549 19.8702 74.699H13.5891C13.9474 81.3835 15.4281 87.8531 17.9835 93.9885ZM48.41 124.737C55.0971 127.602 62.1664 129.13 69.4506 129.273V122.994C57.3182 122.708 46.2128 118.1 37.5912 110.604L33.1251 115.068C37.7106 119.103 42.8215 122.35 48.41 124.737ZM48.41 18.2629C42.8215 20.6503 37.6867 23.897 33.1251 27.9077L37.5912 32.372C46.2128 24.8997 57.3182 20.2922 69.4745 20.0057V13.7271C62.1664 13.8703 55.0971 15.3982 48.41 18.2629Z" fill="#DB4848"/>
<path d="M5.49301 43.6639C2.1972 51.5182 0.35824 59.7783 0 68.301H6.28113C7.04538 52.497 13.3982 38.1493 23.3572 27.2392L18.915 22.775C13.231 28.9104 8.71716 35.929 5.49301 43.6639ZM5.49301 99.3361C8.74104 107.071 13.231 114.09 18.915 120.249L23.3811 115.785C13.3982 104.875 7.04538 90.5269 6.30502 74.7229H0C0.35824 83.2217 2.1972 91.4818 5.49301 99.3361ZM43.132 137.39C51.491 140.971 60.3275 142.857 69.4507 143V136.721C53.5449 136.411 39.0242 130.252 27.9188 120.297L23.4527 124.761C29.304 130.061 35.8956 134.286 43.132 137.39ZM43.132 5.61018C35.8956 8.71369 29.304 12.9392 23.4527 18.2391L27.9188 22.7033C39.0242 12.7244 53.5449 6.56511 69.4507 6.27863V0C60.3514 0.143239 51.491 2.02922 43.132 5.61018Z" fill="#E8D333"/>
<path d="M97.0829 63.1922L97.059 63.2399C92.4019 63.2399 88.6762 61.9507 85.9058 59.3486C83.1354 56.7464 81.7263 53.3564 81.7263 49.1309V37.2421C81.7263 33.0165 83.1354 29.6027 85.9297 27.0244C88.7239 24.4222 92.4496 23.1331 97.0829 23.1331C101.716 23.1331 105.418 24.3267 108.164 26.6902C110.911 29.0536 112.272 32.4436 112.272 36.884C112.272 37.5047 112.129 37.9583 111.842 38.2686C111.556 38.579 111.126 38.7222 110.553 38.6983H105.561C104.51 38.6983 103.889 38.1254 103.698 36.9795C103.483 35.0457 102.839 33.5656 101.716 32.5391C100.57 31.4886 99.0174 30.9634 97.059 30.9634C95.0051 30.9634 93.3572 31.5603 92.1391 32.7301C90.8973 33.9237 90.2763 35.4516 90.2763 37.3853V48.9399C90.2763 50.8497 90.8973 52.4015 92.1391 53.5952C93.381 54.7888 95.0051 55.3618 97.0351 55.3618C99.0174 55.3618 100.594 54.8366 101.764 53.7623C102.934 52.688 103.579 51.2078 103.698 49.3457C103.889 48.1998 104.51 47.6269 105.561 47.6269H110.577C111.723 47.6269 112.296 48.2715 112.296 49.5606C112.296 53.9771 110.911 57.3432 108.164 59.7067C105.418 62.0224 101.74 63.1922 97.0829 63.1922Z" fill="#404041"/>
<path d="M121.706 62.476C120.345 62.476 119.676 61.8075 119.7 60.4467V25.8785C119.7 24.5177 120.369 23.8492 121.706 23.8492H126.22C127.581 23.8492 128.25 24.5177 128.25 25.8785V60.4706C128.25 61.8314 127.581 62.4998 126.22 62.4998H121.706V62.476Z" fill="#404041"/>
<path d="M151.559 63.1922V63.2399C147.021 63.2399 143.391 61.9746 140.621 59.4441C137.851 56.9135 136.489 53.5713 136.489 49.4174V25.9023C136.489 24.5416 137.158 23.8731 138.519 23.8731H143.033C144.394 23.8731 145.063 24.5416 145.039 25.9023V49.2502C145.039 51.0646 145.636 52.5447 146.807 53.6668C147.977 54.7888 149.577 55.3618 151.607 55.3618C153.518 55.3618 155.07 54.7888 156.264 53.6668C157.458 52.5447 158.031 51.0646 158.031 49.2264V25.8785C158.031 24.5177 158.7 23.8492 160.061 23.8492H164.551C165.889 23.8492 166.534 24.5177 166.486 25.8785V49.3935C166.486 53.5235 165.125 56.8658 162.402 59.3963C159.679 61.9269 156.073 63.1922 151.559 63.1922Z" fill="#404041"/>
<path d="M189.461 23.8492C194.094 23.8492 197.82 25.1623 200.614 27.7644C203.432 30.3666 204.841 33.8282 204.841 38.1492V48.176C204.841 52.497 203.432 55.9586 200.614 58.5608C197.82 61.1629 194.094 62.476 189.461 62.476H176.755C175.394 62.476 174.725 61.8075 174.749 60.4467V25.8785C174.749 24.5177 175.418 23.8492 176.755 23.8492H189.461ZM196.267 47.9611L196.291 38.3641C196.291 36.2871 195.67 34.6399 194.405 33.4701C193.139 32.2765 191.419 31.7035 189.246 31.7035H183.299V54.6694H189.246C191.443 54.6694 193.163 54.0726 194.405 52.9028C195.646 51.6614 196.267 50.0381 196.267 47.9611Z" fill="#404041"/>
<path d="M242.313 60.2319C242.743 61.7359 242.17 62.476 240.618 62.476H235.101C234.05 62.476 233.405 61.9507 233.166 60.8765L231.662 55.1469H219.075L217.571 60.8765C217.356 61.9507 216.711 62.476 215.66 62.476H210.406C208.925 62.476 208.376 61.7359 208.734 60.2319L219.052 25.5681C219.29 24.4222 220.031 23.8492 221.249 23.8492H229.751C230.921 23.8492 231.685 24.4222 232.044 25.5681L242.313 60.2319ZM221.129 47.5553H229.655L225.619 32.3719H225.094L221.129 47.5553Z" fill="#404041"/>
<path d="M263.354 23.8492C267.987 23.8492 271.713 25.1623 274.507 27.7644C277.325 30.3666 278.734 33.8282 278.734 38.1492V48.176C278.734 52.497 277.325 55.9586 274.507 58.5608C271.713 61.1629 267.987 62.476 263.354 62.476H250.648C249.287 62.476 248.618 61.8075 248.642 60.4467V25.8785C248.642 24.5177 249.311 23.8492 250.648 23.8492H263.354ZM270.184 47.9611L270.208 38.3641C270.208 36.2871 269.587 34.6399 268.321 33.4701C267.056 32.2765 265.336 31.7035 263.163 31.7035H257.216V54.6694H263.163C265.36 54.6694 267.079 54.0726 268.321 52.9028C269.563 51.6614 270.184 50.0381 270.184 47.9611Z" fill="#404041"/>
<path d="M95.1962 67.5848C99.0413 67.5848 102.122 68.6591 104.439 70.8315C106.779 73.004 107.949 75.8688 107.949 79.4497V87.7576C107.949 91.3386 106.779 94.2033 104.439 96.3758C102.122 98.5482 99.0413 99.6225 95.1962 99.6225H84.6639C83.5176 99.6225 82.9683 99.0734 83.016 97.9514V69.2559C83.016 68.1339 83.5653 67.5848 84.6639 67.5848H95.1962ZM100.856 87.5666L100.88 79.593C100.88 77.8741 100.355 76.5133 99.304 75.5345C98.2531 74.5557 96.8202 74.0544 95.029 74.0544H90.1092V93.1052H95.029C96.8441 93.1052 98.277 92.6038 99.304 91.625C100.331 90.6462 100.856 89.3093 100.856 87.5666Z" fill="#404041"/>
<path d="M133.241 74.0305H121.228V80.2614H131.354C132.453 80.2614 132.978 80.8105 132.978 81.9087V84.9883C132.978 86.1103 132.429 86.6594 131.354 86.6594H121.204V93.1768H133.217C134.316 93.1768 134.865 93.7259 134.841 94.8001V97.9991C134.841 99.0973 134.292 99.6225 133.217 99.6225H115.735C114.637 99.6225 114.111 99.0734 114.111 97.9991V69.1843C114.111 68.0861 114.66 67.5371 115.735 67.5609H133.217C134.316 67.5609 134.865 68.11 134.841 69.1843V72.4072C134.889 73.4815 134.34 74.0305 133.241 74.0305Z" fill="#404041"/>
<path d="M159.106 93.1051C159.655 93.1051 160.085 93.2484 160.372 93.511C160.658 93.7736 160.778 94.2033 160.778 94.7285V97.9275C160.778 99.0496 160.229 99.5986 159.13 99.5986H142.699C141.552 99.5986 141.003 99.0496 141.051 97.9275V69.2559C141.051 68.1339 141.6 67.5848 142.699 67.5848H146.448C147.571 67.5848 148.12 68.1339 148.12 69.2559V93.1051H159.106Z" fill="#404041"/>
<path d="M196.124 74.0305H184.111V80.2614H194.261C195.36 80.2614 195.885 80.8105 195.885 81.9087V84.9883C195.885 86.1103 195.336 86.6594 194.261 86.6594H184.111V93.1768H196.124C197.223 93.1768 197.772 93.7259 197.748 94.8001V97.9991C197.748 99.0973 197.199 99.6225 196.124 99.6225H178.642C177.543 99.6225 177.018 99.0734 177.018 97.9991V69.1843C177.018 68.0861 177.567 67.5371 178.642 67.5609H196.124C197.223 67.5609 197.772 68.11 197.748 69.1843V72.4072C197.772 73.4815 197.223 74.0305 196.124 74.0305Z" fill="#404041"/>
<path d="M214.561 100.219L214.49 100.243C210.979 100.243 208.161 99.5031 206.011 97.9991C203.862 96.4951 202.572 94.3943 202.166 91.6966C202.071 90.5507 202.62 89.9778 203.79 89.9778H208.042C208.83 89.9778 209.379 90.4314 209.666 91.3385C210.191 93.4632 211.767 94.5375 214.442 94.5375C215.779 94.5375 216.926 94.2272 217.857 93.6304C218.789 93.0335 219.266 92.2218 219.266 91.243C219.266 90.4552 218.956 89.7868 218.335 89.2138C217.69 88.617 216.902 88.1395 215.923 87.7337C215.039 87.3756 213.964 86.9936 212.651 86.5878C211.481 86.2297 210.286 85.7761 209.045 85.2509C207.85 84.7496 206.752 84.1527 205.749 83.4604C204.793 82.792 203.981 81.8609 203.337 80.6673C202.716 79.4736 202.405 78.1128 202.405 76.5372C202.405 73.6008 203.504 71.309 205.701 69.5901C207.874 67.8951 210.764 67.0357 214.347 67.0357C217.69 67.0357 220.365 67.728 222.419 69.1127C224.449 70.4973 225.667 72.4788 226.073 75.0809C226.145 75.6062 226.025 76.012 225.739 76.3224C225.452 76.6088 225.046 76.7521 224.497 76.7521H220.293C219.505 76.7521 218.98 76.3462 218.693 75.5584C218.096 73.6963 216.615 72.7891 214.251 72.7891C213.009 72.7891 211.982 73.0756 211.17 73.6247C210.358 74.1738 209.952 74.9138 209.952 75.8449C209.952 76.8953 210.525 77.7547 211.696 78.4232C212.866 79.0916 214.275 79.6407 215.899 80.0943C217.523 80.5718 219.171 81.1208 220.795 81.7654C222.419 82.41 223.828 83.4604 224.998 84.8928C226.168 86.3252 226.742 88.1395 226.742 90.3597C226.742 93.3916 225.643 95.8028 223.422 97.5694C221.225 99.3122 218.263 100.219 214.561 100.219Z" fill="#404041"/>
<path d="M252.368 67.5848C253.49 67.5848 254.039 68.1339 254.039 69.2559V72.4549C254.039 73.5531 253.49 74.1021 252.368 74.0783H245.609V97.9514C245.609 99.0734 245.06 99.6225 243.961 99.6225H240.211C239.089 99.6225 238.54 99.0734 238.54 97.9514V74.0783H231.685C230.587 74.0783 230.037 73.5292 230.061 72.4549V69.2559C230.061 68.1339 230.611 67.5848 231.685 67.5848H252.368Z" fill="#404041"/>
<path d="M278.4 74.0305H266.387V80.2614H276.537C277.636 80.2614 278.161 80.8105 278.161 81.9087V84.9883C278.161 86.1103 277.612 86.6594 276.537 86.6594H266.387V93.1768H278.4C279.498 93.1768 280.048 93.7259 280.024 94.8001V97.9991C280.024 99.0973 279.475 99.6225 278.4 99.6225H260.918C259.819 99.6225 259.294 99.0734 259.294 97.9991V69.1843C259.294 68.0861 259.843 67.5371 260.918 67.5609H278.4C279.498 67.5609 280.048 68.11 280.024 69.1843V72.4072C280.048 73.4815 279.498 74.0305 278.4 74.0305Z" fill="#404041"/>
<path d="M98.8979 119.628C98.8979 118.506 99.1368 117.408 99.5905 116.334C99.9488 115.498 100.641 114.042 101.621 111.965C102.242 110.676 102.528 109.96 102.456 109.769C102.624 109.601 102.719 109.506 102.767 109.506C103.149 109.506 103.412 109.625 103.531 109.888C103.627 110.055 103.674 110.318 103.674 110.724C103.674 111.487 103.483 112.466 103.077 113.66C102.695 114.806 102.242 115.809 101.74 116.716C101.644 116.883 101.477 117.36 101.262 118.148C101.024 118.984 100.832 119.557 100.689 119.843C100.641 119.939 100.546 120.01 100.379 120.082C100.211 120.153 100.068 120.177 99.9727 120.177C99.2562 120.177 98.8979 119.986 98.8979 119.628ZM102.934 108.647C103.149 108.838 103.34 108.933 103.507 108.933C103.818 108.933 103.985 108.647 104.057 108.074C104.128 107.453 103.961 107.095 103.555 107.023C103.268 107.047 103.03 107.143 102.839 107.286C102.6 107.453 102.48 107.644 102.48 107.883C102.48 108.121 102.624 108.384 102.934 108.647Z" fill="#404041"/>
<path d="M120.512 110.413C120.512 111.106 120.01 111.678 119.007 112.132C118.267 112.466 117.311 112.705 116.117 112.872C115.544 112.92 114.971 112.991 114.422 113.039C115.09 113.397 115.735 113.755 116.404 114.09C117.383 114.639 118.147 115.14 118.673 115.618C119.389 116.262 119.748 116.907 119.748 117.527C119.748 117.79 119.7 118.029 119.604 118.244C119.485 118.53 119.318 118.673 119.079 118.673C118.959 118.673 118.625 118.363 118.076 117.742C117.526 117.122 117.192 116.787 117.073 116.763L112.177 115.522C111.914 115.522 111.532 115.45 111.006 115.331C110.338 115.14 110.003 114.925 110.003 114.663C110.003 113.875 110.648 113.159 111.962 112.586C112.32 112.419 113.06 112.18 114.183 111.869C114.804 111.678 115.281 111.511 115.616 111.392C116.332 111.106 116.81 110.819 117.073 110.533C117.001 110.342 116.738 110.246 116.308 110.246C115.449 110.246 114.255 110.461 112.75 110.867C111.102 111.32 110.194 111.774 110.027 112.18C109.574 113.182 108.833 114.83 107.83 117.122C107.663 117.504 107.52 118.172 107.352 119.151C107.305 119.58 107.233 120.01 107.185 120.416C107.018 121.299 106.827 121.992 106.564 122.541C106.206 123.281 105.752 123.663 105.227 123.663C105.084 123.663 104.893 123.543 104.654 123.329C104.606 122.159 104.725 121.061 104.964 120.034C105.131 119.437 105.49 118.411 106.039 116.931C106.66 115.307 107.185 113.827 107.567 112.49C107.52 112.466 107.257 112.395 106.827 112.275C106.493 112.18 106.325 112.084 106.302 112.013C106.278 111.822 106.325 111.535 106.421 111.201C106.564 110.7 106.636 110.413 106.636 110.365C106.636 110.365 106.923 110.27 107.448 110.055C107.806 109.912 108.021 109.792 108.117 109.673C108.284 109.411 108.451 109.148 108.642 108.885C108.833 108.67 109.168 108.551 109.597 108.551C109.669 108.551 109.98 108.599 110.577 108.67C111.15 108.742 111.484 108.79 111.58 108.79C111.675 108.79 112.033 108.67 112.607 108.456C113.323 108.169 113.944 107.978 114.446 107.835C115.281 107.62 116.07 107.501 116.81 107.501C117.694 107.501 118.482 107.716 119.174 108.169C120.082 108.67 120.512 109.434 120.512 110.413Z" fill="#404041"/>
<path d="M130.519 113.994C129.42 114.281 127.915 114.543 126.005 114.758C124.5 114.949 123.545 115.14 123.091 115.403C122.398 115.761 122.088 116.381 122.16 117.313C122.207 117.336 122.327 117.36 122.47 117.36C122.613 117.36 122.804 117.336 123.091 117.313C123.378 117.289 123.545 117.265 123.616 117.265C123.736 117.265 124.333 117.145 125.408 116.883C126.482 116.62 127.079 116.501 127.175 116.501C127.509 116.501 127.748 116.525 127.891 116.596C128.154 116.716 128.393 116.954 128.608 117.36C128.226 118.053 127.247 118.745 125.67 119.437C124.142 120.082 122.876 120.416 121.873 120.416C121.18 120.416 120.679 120.297 120.368 120.034C119.986 119.748 119.819 119.27 119.819 118.578C119.819 117.694 120.225 116.071 121.037 113.732C121.801 111.511 122.351 110.27 122.637 110.007C122.924 109.745 123.807 109.625 125.288 109.625C125.957 109.625 126.458 109.673 126.817 109.769C127.318 109.936 127.772 110.246 128.154 110.724L128.011 111.273C127.987 111.296 127.557 111.296 126.721 111.273C125.742 111.249 125.002 111.296 124.476 111.44C123.688 111.678 123.282 112.132 123.282 112.8V113.254C123.831 113.254 124.834 113.23 126.315 113.111C127.868 113.015 128.847 112.968 129.253 112.968C129.587 112.968 129.921 113.039 130.256 113.159C130.59 113.278 130.781 113.445 130.781 113.636C130.733 113.755 130.662 113.875 130.519 113.994Z" fill="#404041"/>
<path d="M143.129 117.718C143.129 117.862 142.794 118.076 142.126 118.387C138.209 120.082 135.128 120.917 132.859 120.917C130.351 120.917 129.086 119.962 129.086 118.029C129.086 117.026 129.778 115.856 131.163 114.543C132.31 113.421 133.719 112.418 135.367 111.511C136.919 110.628 138.066 110.198 138.758 110.198C139.284 110.198 139.522 110.509 139.522 111.153C139.522 111.416 139.499 111.607 139.475 111.678C139.427 111.822 139.284 111.989 139.045 112.204C138.997 112.251 138.209 112.633 136.728 113.326C135.176 114.066 133.958 114.758 133.098 115.427C131.856 116.405 131.235 117.408 131.235 118.411C131.235 118.912 131.546 119.246 132.167 119.461C132.525 119.58 132.931 119.652 133.408 119.652C134.173 119.652 135.056 119.557 136.083 119.342C136.919 119.175 137.516 119.007 137.875 118.864C138.495 118.53 139.451 118.053 140.764 117.456C141.624 117.098 142.078 116.931 142.102 116.931C142.245 116.931 142.436 117.026 142.723 117.241C142.985 117.384 143.129 117.551 143.129 117.718Z" fill="#404041"/>
<path d="M152.228 114.09C152.228 115.522 151.726 116.883 150.7 118.172C149.553 119.604 148.216 120.321 146.639 120.321C145.421 120.321 144.466 119.962 143.774 119.246C143.105 118.554 142.771 117.647 142.771 116.525C142.771 116.071 142.938 115.307 143.248 114.233C143.654 112.92 144.132 111.846 144.657 110.986C145.374 109.888 146.114 109.339 146.902 109.339C148.407 109.339 149.649 109.721 150.604 110.509C151.679 111.32 152.228 112.538 152.228 114.09ZM149.243 114.758C149.243 114.758 149.29 114.567 149.362 114.113C149.434 113.66 149.482 113.278 149.482 112.944C149.482 111.583 148.813 110.938 147.451 111.058C146.735 111.105 146.042 111.917 145.421 113.493C144.872 114.806 144.609 115.808 144.609 116.501C144.609 116.907 144.681 117.265 144.801 117.599C145.039 118.22 145.469 118.554 146.09 118.554C146.95 118.554 147.714 118.005 148.407 116.931C148.98 116.047 149.243 115.331 149.243 114.758Z" fill="#404041"/>
<path d="M165.363 110.103C165.363 110.485 165.029 111.44 164.36 113.015C163.62 114.734 162.904 116.19 162.163 117.384C161.232 118.888 160.491 119.652 159.918 119.652C159.441 119.652 158.915 119.175 158.366 118.244C157.984 117.575 157.578 116.692 157.148 115.57C156.957 114.997 156.742 114.448 156.551 113.875C156.001 115.021 155.404 116.787 154.76 119.175C154.712 119.366 154.521 119.557 154.21 119.748C153.9 119.962 153.661 120.058 153.494 120.058C153.088 120.058 152.777 119.867 152.562 119.509C152.395 119.222 152.323 118.936 152.323 118.602C152.323 118.148 152.395 117.718 152.562 117.313C152.968 116.31 153.661 114.925 154.64 113.159C155.213 112.084 155.786 111.273 156.288 110.724C156.36 110.652 156.527 110.604 156.813 110.556C157.219 110.509 157.458 110.485 157.53 110.461C158.509 112.037 159.13 114.233 159.393 117.002C159.512 117.098 159.703 117.265 159.942 117.504C160.467 116.596 161.112 115.212 161.9 113.373C162.378 112.204 162.712 111.464 162.856 111.177C163.548 109.912 164.193 109.291 164.814 109.291C165.077 109.291 165.244 109.411 165.316 109.625C165.363 109.697 165.363 109.864 165.363 110.103Z" fill="#404041"/>
<path d="M174.487 117.933C174.487 118.96 173.531 119.771 171.621 120.392C170.283 120.822 169.185 121.061 168.301 121.061C168.134 121.061 167.823 121.013 167.346 120.917C166.773 120.798 166.343 120.655 166.008 120.512V119.962C166.008 119.748 166.056 119.485 166.175 119.151C166.343 118.721 166.558 118.482 166.82 118.411H170.331C170.355 118.411 170.474 118.411 170.665 118.435C170.856 118.458 171.024 118.458 171.191 118.458C171.836 118.458 172.289 118.267 172.504 117.862V117.599C171.979 116.954 171.071 116.572 169.758 116.477C168.731 116.429 167.68 116.358 166.653 116.286C165.674 116.095 165.196 115.522 165.196 114.591C165.196 114.018 165.626 113.35 166.462 112.61C167.179 111.989 168.062 111.44 169.065 110.938C170.021 110.485 170.713 110.246 171.143 110.246C172.098 110.246 172.576 110.58 172.576 111.249C172.576 111.917 172.17 112.371 171.334 112.562C170.546 112.657 169.734 112.777 168.97 112.872C168.086 113.063 167.608 113.445 167.513 114.09C168.373 114.233 169.232 114.376 170.092 114.519C171.382 114.758 172.361 115.092 173.054 115.522C174.009 116.119 174.487 116.931 174.487 117.933Z" fill="#404041"/>
<path d="M185.974 109.673C186.022 109.721 186.046 109.792 186.046 109.864C186.046 110.127 185.735 110.413 185.09 110.7C184.589 110.938 184.231 111.082 184.04 111.106C183.586 111.153 182.774 111.201 181.604 111.201C180.696 111.201 179.98 111.296 179.43 111.44C179.43 111.607 179.43 111.75 179.406 111.893C179.383 112.037 179.335 112.228 179.239 112.442C179.191 112.562 178.977 113.445 178.618 115.092C178.212 116.883 178.021 118.005 178.021 118.435V120.297C177.926 120.535 177.52 120.655 176.827 120.655C176.326 120.655 176.087 120.249 176.087 119.437C176.087 119.055 176.182 118.458 176.373 117.575C176.54 116.859 176.66 116.31 176.779 115.952C176.851 115.737 176.97 115.14 177.138 114.137C177.329 113.063 177.4 112.371 177.4 112.013C177.4 111.893 177.329 111.798 177.209 111.702L174.773 112.275C174.415 112.347 174.224 111.893 174.224 110.891C174.224 110.509 174.319 110.246 174.534 110.127C174.678 110.031 174.916 109.983 175.251 109.983C175.299 109.983 175.394 109.983 175.537 110.007C175.681 110.031 175.8 110.031 175.872 110.031L183.92 108.814C184.613 108.766 185.09 108.814 185.377 108.981C185.544 109.124 185.735 109.339 185.974 109.673Z" fill="#404041"/>
<path d="M193.569 111.511C193.473 112.944 192.279 113.779 189.986 114.066C190.798 114.543 191.539 115.092 192.255 115.689C193.306 116.596 193.831 117.336 193.831 117.933C193.831 118.124 193.784 118.387 193.688 118.697C193.569 119.079 193.449 119.294 193.306 119.294C193.234 119.294 192.972 119.007 192.494 118.411C192.04 117.838 191.777 117.527 191.682 117.503L187.932 115.546C187.765 115.546 187.503 115.498 187.168 115.403C186.714 115.283 186.499 115.14 186.499 114.973C186.499 114.448 186.929 113.97 187.789 113.564C188.028 113.469 188.529 113.302 189.27 113.087C189.676 112.968 190.01 112.872 190.225 112.777C190.703 112.586 191.013 112.395 191.18 112.204C191.133 112.084 190.965 112.013 190.679 112.013C190.153 112.013 189.341 112.228 188.243 112.633C187.12 113.039 186.499 113.397 186.38 113.684C186.285 113.899 186.141 114.352 185.974 115.021C185.807 115.689 185.64 116.238 185.449 116.716C185.353 116.954 185.234 117.408 185.138 118.053C185.067 118.482 184.899 118.984 184.66 119.557C184.254 120.488 183.801 120.941 183.299 120.941C183.204 120.941 183.084 120.87 182.917 120.726C182.893 119.939 182.965 119.198 183.132 118.53C183.228 118.148 183.466 117.456 183.848 116.453C184.254 115.379 184.613 114.4 184.852 113.517C184.589 113.445 184.302 113.35 184.016 113.206C184.016 113.063 184.04 112.896 184.111 112.657C184.207 112.323 184.254 112.132 184.254 112.084C184.541 112.013 184.852 111.846 185.234 111.631C185.353 111.44 185.473 111.273 185.616 111.105C185.735 110.938 185.95 110.867 186.213 110.867C186.261 110.867 186.476 110.891 186.858 110.962C187.24 111.01 187.479 111.058 187.526 111.058C187.526 111.058 187.956 110.914 188.792 110.628C189.628 110.342 190.368 110.198 191.013 110.198C191.825 110.198 192.375 110.246 192.685 110.318C193.306 110.485 193.616 110.891 193.569 111.511Z" fill="#404041"/>
<path d="M201.976 110.556C201.976 111.129 201.713 112.156 201.163 113.612C200.519 115.331 199.754 116.763 198.919 117.909C197.82 119.366 196.721 120.082 195.575 120.082C194.859 120.082 194.285 119.461 193.879 118.22C193.593 117.384 193.449 116.644 193.449 116.023C193.449 115.928 193.521 115.092 193.688 113.541C193.879 111.798 193.975 110.533 194.047 109.745C194.07 109.745 194.166 109.721 194.309 109.649C194.476 109.601 194.596 109.554 194.739 109.554C195.694 109.554 196.196 110.27 196.196 111.702C196.196 111.822 196.005 112.586 195.647 113.946C195.265 115.331 195.097 116.071 195.097 116.19C195.097 116.525 195.193 116.859 195.36 117.217C195.527 117.575 195.718 117.766 195.909 117.766C196.841 117.766 197.868 116.358 198.966 113.564C199.468 112.132 199.969 110.7 200.471 109.267H201.259C201.737 109.769 201.976 110.198 201.976 110.556Z" fill="#404041"/>
<path d="M210.788 110.413C210.74 111.225 210.334 112.037 209.57 112.848C209.236 113.206 208.519 113.827 207.373 114.758C206.513 115.45 206.012 115.999 205.868 116.381C205.773 116.62 205.725 117.814 205.677 119.962C205.558 120.201 205.343 120.321 205.008 120.321C204.626 120.321 204.435 119.795 204.364 118.721C204.364 117.742 204.364 116.763 204.34 115.785C204.34 115.522 204.244 115.212 204.101 114.854C203.958 114.495 203.886 114.328 203.886 114.352C203.886 114.209 203.862 113.803 203.814 113.159C203.767 112.514 203.743 111.989 203.743 111.583C203.743 110.485 203.886 109.769 204.173 109.41L204.865 109.315C205.104 109.578 205.271 109.745 205.319 109.84C205.367 109.936 205.438 110.103 205.486 110.413L205.438 114.09C205.82 113.827 206.322 113.326 206.943 112.586C207.707 111.678 208.209 111.129 208.448 110.891C209.021 110.342 209.546 110.079 210.024 110.079C210.358 110.079 210.597 110.198 210.788 110.413Z" fill="#404041"/>
<path d="M223.088 114.686C222.968 115.331 222.777 115.761 222.491 115.976C222.276 116.143 221.846 116.214 221.249 116.214C220.867 116.214 220.604 116.19 220.413 116.119C220.293 116.859 220.198 117.575 220.078 118.315C219.768 119.652 219.338 120.297 218.741 120.297C218.287 120.297 218.048 119.867 218.048 119.008C218.048 118.554 218.12 117.957 218.239 117.265C218.383 116.572 218.431 116.238 218.431 116.262C218.407 116.238 218.287 116.262 218.048 116.31C217.833 116.358 217.69 116.381 217.642 116.381C217.475 116.381 216.926 116.453 215.995 116.62C214.848 116.811 214.012 116.978 213.415 117.145C213.224 117.384 212.961 117.742 212.627 118.196C212.269 118.649 211.934 119.103 211.576 119.58C211.17 120.058 210.716 120.297 210.239 120.297C209.522 120.297 209.164 119.962 209.164 119.27C209.164 118.697 210.573 117.122 213.415 114.519C215.087 113.039 216.759 111.559 218.431 110.079C218.789 109.745 219.338 109.602 220.055 109.602C220.508 109.602 220.795 109.769 220.914 110.103C220.962 110.246 220.986 110.556 220.986 111.082L220.723 114.424H222.61C222.825 114.4 222.968 114.495 223.088 114.686ZM218.717 114.209C218.741 113.326 218.741 112.753 218.669 112.466C218.622 112.251 218.526 112.132 218.383 112.132C218.192 112.108 218.048 112.06 217.977 111.989C217.642 112.228 217.189 112.705 216.615 113.397C216.233 113.899 215.827 114.376 215.421 114.877L218.717 114.209Z" fill="#404041"/>
<path d="M237.871 113.206C237.775 113.541 237.369 114.496 236.653 116.047C235.984 117.504 235.602 118.458 235.507 118.888C235.483 118.96 235.483 119.055 235.483 119.175C235.483 119.294 235.507 119.485 235.531 119.795C235.554 120.106 235.578 120.321 235.578 120.488C235.578 121.275 235.244 121.681 234.575 121.681C234.36 121.681 234.169 121.562 233.978 121.323C233.787 121.084 233.692 120.846 233.692 120.607C233.692 120.535 233.692 120.464 233.715 120.392L235.793 113.493C235.841 113.373 235.865 113.302 235.841 113.302C235.817 113.302 235.793 113.35 235.745 113.397C234.695 114.305 233.644 115.188 232.569 116.095C230.754 117.551 229.536 118.267 228.939 118.267C228.246 118.267 227.506 117.026 226.742 114.519C226.36 115.092 226.049 115.761 225.739 116.596C225.667 116.787 225.452 117.48 225.07 118.697C225.022 118.888 224.855 119.151 224.592 119.485C224.33 119.819 224.115 119.986 223.995 119.986C223.613 119.986 223.398 119.867 223.303 119.604C223.255 119.509 223.231 119.27 223.231 118.936C223.231 118.649 223.804 117.265 224.927 114.83C226.097 112.228 226.861 110.938 227.243 110.938C227.793 110.938 228.222 111.344 228.557 112.18C228.772 112.753 228.939 113.564 229.058 114.591C229.106 115.116 229.178 115.641 229.226 116.191C230.372 115.355 231.542 114.519 232.712 113.684C234.838 112.204 236.151 111.464 236.653 111.464C237.011 111.464 237.298 111.655 237.537 112.013C237.728 112.347 237.847 112.681 237.847 113.015C237.895 113.063 237.895 113.135 237.871 113.206Z" fill="#404041"/>
<path d="M246.922 114.09C246.922 115.522 246.421 116.883 245.394 118.172C244.248 119.604 242.91 120.321 241.334 120.321C240.116 120.321 239.161 119.962 238.468 119.246C237.799 118.554 237.465 117.647 237.465 116.525C237.465 116.071 237.632 115.307 237.942 114.233C238.349 112.92 238.826 111.846 239.352 110.986C240.068 109.888 240.808 109.339 241.597 109.339C243.101 109.339 244.343 109.721 245.298 110.509C246.373 111.32 246.922 112.538 246.922 114.09ZM243.937 114.758C243.937 114.758 243.985 114.567 244.056 114.113C244.128 113.66 244.176 113.278 244.176 112.944C244.176 111.583 243.507 110.938 242.146 111.058C241.429 111.105 240.737 111.917 240.116 113.493C239.567 114.806 239.304 115.808 239.304 116.501C239.304 116.907 239.375 117.265 239.495 117.599C239.734 118.22 240.164 118.554 240.785 118.554C241.644 118.554 242.409 118.005 243.101 116.931C243.65 116.047 243.937 115.331 243.937 114.758Z" fill="#404041"/>
<path d="M256.38 117.933C256.38 118.96 255.425 119.771 253.514 120.392C252.177 120.822 251.078 121.061 250.195 121.061C250.027 121.061 249.717 121.013 249.239 120.917C248.666 120.798 248.236 120.655 247.902 120.512V119.962C247.902 119.748 247.95 119.485 248.069 119.151C248.236 118.721 248.451 118.482 248.714 118.411H252.225C252.248 118.411 252.368 118.411 252.559 118.435C252.75 118.458 252.917 118.458 253.084 118.458C253.729 118.458 254.183 118.267 254.398 117.862V117.599C253.873 116.954 252.965 116.572 251.651 116.477C250.624 116.429 249.574 116.358 248.547 116.286C247.567 116.095 247.09 115.522 247.09 114.591C247.09 114.018 247.52 113.35 248.356 112.61C249.072 111.989 249.956 111.44 250.959 110.938C251.914 110.485 252.607 110.246 253.037 110.246C253.992 110.246 254.47 110.58 254.47 111.249C254.47 111.917 254.064 112.371 253.228 112.562C252.44 112.657 251.628 112.777 250.863 112.872C249.98 113.063 249.502 113.445 249.406 114.09C250.266 114.233 251.126 114.376 251.986 114.519C253.275 114.758 254.255 115.092 254.947 115.522C255.903 116.119 256.38 116.931 256.38 117.933Z" fill="#404041"/>
<path d="M258.84 118.984C258.84 119.198 258.721 119.413 258.506 119.557C258.291 119.724 258.028 119.819 257.765 119.843C257.359 119.771 257.192 119.413 257.264 118.793C257.335 118.22 257.526 117.933 257.813 117.933C257.98 117.933 258.171 118.029 258.386 118.22C258.697 118.482 258.84 118.721 258.84 118.984ZM261.372 106.665C261.276 106.665 261.133 106.689 260.965 106.761C260.798 106.832 260.679 106.904 260.655 106.999C260.512 107.286 260.321 107.859 260.082 108.694C259.843 109.482 259.676 109.96 259.604 110.127C259.079 111.034 258.649 112.037 258.267 113.182C257.861 114.4 257.67 115.379 257.67 116.119C257.67 116.525 257.717 116.811 257.813 116.954C257.932 117.217 258.195 117.336 258.577 117.336C258.625 117.336 258.721 117.241 258.888 117.074C258.816 116.883 259.103 116.143 259.724 114.877C260.727 112.801 261.395 111.344 261.754 110.509C262.207 109.411 262.446 108.312 262.446 107.214C262.398 106.856 262.064 106.665 261.372 106.665Z" fill="#404041"/>
</g>
<defs>
<clipPath id="clip0_801_4697">
<rect width="280" height="143" fill="white"/>
</clipPath>
</defs>
</svg>
