<?xml version="1.0" encoding="UTF-8"?>
<!DOCTYPE svg PUBLIC "-//W3C//DTD SVG 1.1//EN" "http://www.w3.org/Graphics/SVG/1.1/DTD/svg11.dtd">
<!-- Creator: CorelDRAW 2020 (64-Bit) -->
<svg xmlns="http://www.w3.org/2000/svg" xml:space="preserve" width="56.3143mm" height="20.1001mm" version="1.1" style="shape-rendering:geometricPrecision; text-rendering:geometricPrecision; image-rendering:optimizeQuality; fill-rule:evenodd; clip-rule:evenodd"
viewBox="0 0 3.0546 1.0903"
 xmlns:xlink="http://www.w3.org/1999/xlink"
 xmlns:xodm="http://www.corel.com/coreldraw/odm/2003">
 <defs>
  <style type="text/css">
   <![CDATA[
    .str0 {stroke:white;stroke-width:0.0756;stroke-miterlimit:2.61313}
    .fil2 {fill:none}
    .fil3 {fill:black}
    .fil5 {fill:orange}
    .fil4 {fill:#FFCC00}
    .fil0 {fill:black;fill-rule:nonzero}
    .fil1 {fill:orange;fill-rule:nonzero}
   ]]>
  </style>
 </defs>
 <g id="Layer_x0020_1">
  <metadata id="CorelCorpID_0Corel-Layer"/>
  <g id="_2178589163120">
   <g>
    <polygon class="fil0" points="1.7929,0.2282 1.4656,0.2282 1.4493,0.3062 1.7476,0.3062 1.7159,0.4657 1.4176,0.4657 1.4012,0.5446 1.7376,0.5446 1.7059,0.7042 1.16,0.7042 1.287,0.0686 1.8247,0.0686 "/>
    <path id="1" class="fil0" d="M2.28 0.3651c0.0302,0.0073 0.0539,0.0228 0.0712,0.0467 0.0172,0.0239 0.0258,0.0521 0.0258,0.0848 0,0.0411 -0.0125,0.0774 -0.0376,0.1088 -0.0251,0.0314 -0.06,0.0558 -0.1047,0.073 -0.0447,0.0172 -0.0955,0.0258 -0.1523,0.0258l-0.3373 0 0.1269 -0.6356 0.3219 0c0.0689,0 0.1233,0.0125 0.1632,0.0376 0.0399,0.0251 0.0598,0.0588 0.0598,0.1011 0,0.0357 -0.0127,0.068 -0.0381,0.097 -0.0254,0.029 -0.0583,0.0493 -0.0988,0.0608zm-0.1469 -0.0517c0.0169,0 0.0308,-0.0051 0.0417,-0.0154 0.0109,-0.0103 0.0163,-0.0233 0.0163,-0.039 0,-0.0115 -0.0035,-0.0204 -0.0104,-0.0267 -0.0069,-0.0063 -0.0168,-0.0095 -0.0295,-0.0095l-0.1007 0 -0.0181 0.0907 0.1006 0zm-0.0471 0.2367c0.0218,0 0.0397,-0.0054 0.0539,-0.0163 0.0142,-0.0109 0.0213,-0.0248 0.0213,-0.0417 0,-0.0121 -0.005,-0.0216 -0.015,-0.0286 -0.01,-0.0069 -0.0237,-0.0104 -0.0413,-0.0104l-0.0997 0 -0.019 0.097 0.0997 0z"/>
    <path id="2" class="fil0" d="M2.8241 0.7042l-0.0163 -0.0898 -0.2385 0 -0.0481 0.0898 -0.214 0 0.3736 -0.6356 0.2158 0 0.1532 0.6356 -0.2258 0zm-0.175 -0.2403l0.1324 0 -0.0335 -0.185 -0.0988 0.185z"/>
    <polygon class="fil0" points="1.2983,0.7293 1.3582,0.7293 1.3251,0.9 1.2757,0.9 1.2937,0.8067 1.2445,0.8834 1.2078,0.8834 1.1885,0.8065 1.1703,0.9 1.1209,0.9 1.154,0.7293 1.2139,0.7293 1.2389,0.8184 "/>
    <path id="1" class="fil0" d="M1.5517 0.9l-0.0044 -0.0241 -0.064 0 -0.0129 0.0241 -0.0574 0 0.1003 -0.1706 0.0579 0 0.0411 0.1706 -0.0606 0zm-0.047 -0.0645l0.0355 0 -0.009 -0.0497 -0.0265 0.0497z"/>
    <path id="2" class="fil0" d="M1.8789 0.7785c0,0.0151 -0.0034,0.0284 -0.0101,0.0399 -0.0067,0.0115 -0.0164,0.0204 -0.0291,0.0268l0.0224 0.0548 -0.0638 0 -0.0117 -0.0443 -0.0212 0 -0.0088 0.0443 -0.0565 0 0.0341 -0.1706 0.0825 0c0.02,0 0.0353,0.0043 0.046,0.0128 0.0107,0.0085 0.0161,0.0207 0.0161,0.0364zm-0.1047 0.0343l0.026 0c0.0073,0 0.0131,-0.0023 0.0174,-0.0069 0.0043,-0.0046 0.0065,-0.0108 0.0065,-0.0184 0,-0.0049 -0.0014,-0.0086 -0.0041,-0.0113 -0.0028,-0.0027 -0.0067,-0.004 -0.0117,-0.004l-0.026 0 -0.008 0.0406z"/>
    <polygon id="3" class="fil0" points="2.1318,0.7293 2.1228,0.7739 2.0741,0.7739 2.0488,0.9 1.9923,0.9 2.0176,0.7739 1.9692,0.7739 1.9782,0.7293 "/>
    <path id="4" class="fil0" d="M2.2798 0.7293l-0.0341 0.1706 -0.0565 0 0.0341 -0.1706 0.0565 0zm-0.0214 -0.0567l0.0411 0.0146 -0.0394 0.0314 -0.0346 -0.0024 0.0329 -0.0436z"/>
    <polygon id="5" class="fil0" points="2.4969,0.7293 2.548,0.7293 2.5139,0.9 2.4667,0.9 2.4171,0.8128 2.3995,0.9 2.3482,0.9 2.3823,0.7293 2.4295,0.7293 2.4794,0.817 "/>
    <polygon id="6" class="fil0" points="2.7863,0.7722 2.6985,0.7722 2.6941,0.7931 2.7742,0.7931 2.7656,0.836 2.6856,0.836 2.6812,0.8571 2.7715,0.8571 2.763,0.9 2.6164,0.9 2.6505,0.7293 2.7949,0.7293 "/>
    <polygon id="7" class="fil0" points="3.0412,0.7293 3.0354,0.7646 2.9407,0.8566 3.022,0.8566 3.0147,0.9 2.8581,0.9 2.864,0.8647 2.9592,0.7727 2.8822,0.7727 2.8893,0.7293 "/>
    <path class="fil1" d="M1.9816 0.9378c0.0111,0 0.022,0.0025 0.0327,0.0074 0.0107,0.0049 0.0194,0.0115 0.0262,0.0197l-0.0315 0.0331c-0.0038,-0.006 -0.0084,-0.0108 -0.0141,-0.0145 -0.0056,-0.0037 -0.0113,-0.0055 -0.017,-0.0055 -0.0062,0 -0.0119,0.0017 -0.0171,0.005 -0.0051,0.0033 -0.0092,0.008 -0.0123,0.0139 -0.0031,0.0059 -0.0046,0.0125 -0.0046,0.0197 0,0.0092 0.0025,0.0167 0.0075,0.0226 0.005,0.0059 0.0115,0.0089 0.0194,0.0089 0.0053,0 0.0111,-0.0016 0.0175,-0.0047 0.0064,-0.0031 0.0122,-0.0073 0.0175,-0.0124l0.0248 0.0298c-0.009,0.009 -0.0195,0.0162 -0.0316,0.0216 -0.012,0.0053 -0.0236,0.008 -0.0349,0.008 -0.0137,0 -0.0259,-0.003 -0.0366,-0.009 -0.0106,-0.006 -0.0188,-0.0142 -0.0247,-0.0248 -0.0058,-0.0106 -0.0087,-0.0225 -0.0087,-0.0358 0,-0.0156 0.0039,-0.0296 0.0116,-0.0423 0.0077,-0.0126 0.0182,-0.0226 0.0316,-0.0298 0.0133,-0.0072 0.0281,-0.0108 0.0442,-0.0108z"/>
    <path id="1" class="fil1" d="M2.1293 0.9378c0.0143,0 0.027,0.003 0.038,0.0089 0.011,0.0059 0.0196,0.0141 0.0257,0.0245 0.0061,0.0104 0.0092,0.0223 0.0092,0.0356 0,0.0157 -0.0039,0.0299 -0.0117,0.0426 -0.0078,0.0127 -0.0184,0.0227 -0.0319,0.03 -0.0135,0.0073 -0.0284,0.0109 -0.0448,0.0109 -0.0143,0 -0.027,-0.003 -0.038,-0.009 -0.011,-0.006 -0.0196,-0.0142 -0.0257,-0.0248 -0.0061,-0.0106 -0.0092,-0.0225 -0.0092,-0.0358 0,-0.0157 0.0039,-0.0299 0.0117,-0.0425 0.0078,-0.0126 0.0184,-0.0225 0.0319,-0.0297 0.0135,-0.0072 0.0284,-0.0107 0.0448,-0.0107zm-0.0035 0.0402c-0.006,0 -0.0116,0.0017 -0.017,0.0052 -0.0053,0.0035 -0.0097,0.0082 -0.013,0.0143 -0.0033,0.006 -0.005,0.0127 -0.005,0.0199 0,0.0061 0.0013,0.0117 0.0037,0.0167 0.0025,0.005 0.0059,0.0089 0.0101,0.0118 0.0042,0.0028 0.0089,0.0043 0.0139,0.0043 0.006,0 0.0116,-0.0018 0.0168,-0.0053 0.0052,-0.0035 0.0094,-0.0084 0.0125,-0.0145 0.0031,-0.0061 0.0047,-0.0128 0.0047,-0.0202 0,-0.0093 -0.0025,-0.017 -0.0076,-0.023 -0.0051,-0.006 -0.0114,-0.0091 -0.0191,-0.0091z"/>
    <polygon id="2" class="fil1" points="2.3284,0.9409 2.3722,0.9409 2.343,1.0869 2.3026,1.0869 2.2601,1.0124 2.2451,1.0869 2.2011,1.0869 2.2303,0.9409 2.2707,0.9409 2.3134,1.0159 "/>
    <path id="3" class="fil1" d="M2.459 0.9378c0.0111,0 0.022,0.0025 0.0327,0.0074 0.0107,0.0049 0.0194,0.0115 0.0262,0.0197l-0.0315 0.0331c-0.0038,-0.006 -0.0084,-0.0108 -0.0141,-0.0145 -0.0056,-0.0037 -0.0113,-0.0055 -0.017,-0.0055 -0.0062,0 -0.0119,0.0017 -0.0171,0.005 -0.0051,0.0033 -0.0092,0.008 -0.0123,0.0139 -0.0031,0.0059 -0.0046,0.0125 -0.0046,0.0197 0,0.0092 0.0025,0.0167 0.0075,0.0226 0.005,0.0059 0.0115,0.0089 0.0194,0.0089 0.0053,0 0.0111,-0.0016 0.0175,-0.0047 0.0064,-0.0031 0.0122,-0.0073 0.0175,-0.0124l0.0248 0.0298c-0.009,0.009 -0.0195,0.0162 -0.0316,0.0216 -0.012,0.0053 -0.0236,0.008 -0.0349,0.008 -0.0137,0 -0.0259,-0.003 -0.0366,-0.009 -0.0106,-0.006 -0.0188,-0.0142 -0.0247,-0.0248 -0.0058,-0.0106 -0.0087,-0.0225 -0.0087,-0.0358 0,-0.0156 0.0039,-0.0296 0.0116,-0.0423 0.0077,-0.0126 0.0182,-0.0226 0.0316,-0.0298 0.0133,-0.0072 0.0281,-0.0108 0.0442,-0.0108z"/>
    <polygon id="4" class="fil1" points="2.658,0.9776 2.5828,0.9776 2.579,0.9955 2.6476,0.9955 2.6403,1.0322 2.5717,1.0322 2.568,1.0503 2.6453,1.0503 2.638,1.0869 2.5126,1.0869 2.5417,0.9409 2.6653,0.9409 "/>
    <path id="5" class="fil1" d="M2.7855 0.9409l-0.0194 0.0967c-0.0032,0.0163 -0.0106,0.0289 -0.0223,0.0379 -0.0117,0.009 -0.026,0.0135 -0.0429,0.0135 -0.0226,0 -0.0399,-0.0085 -0.0519,-0.0254l0.0281 -0.0312c0.0043,0.0054 0.0089,0.0095 0.0139,0.0123 0.0049,0.0028 0.0093,0.0042 0.0132,0.0042 0.0035,0 0.0064,-0.001 0.0087,-0.0031 0.0024,-0.0021 0.004,-0.0051 0.0048,-0.0092l0.0115 -0.0575 -0.0496 0 0.0077 -0.0381 0.0981 0z"/>
    <path id="6" class="fil1" d="M2.8771 1.0869l-0.0038 -0.0206 -0.0548 0 -0.011 0.0206 -0.0492 0 0.0858 -0.146 0.0496 0 0.0352 0.146 -0.0519 0zm-0.0402 -0.0552l0.0304 0 -0.0077 -0.0425 -0.0227 0.0425z"/>
    <polygon id="7" class="fil1" points="2.9938,1.0467 3.0546,1.0467 3.0465,1.0869 2.9373,1.0869 2.9665,0.9409 3.0148,0.9409 "/>
   </g>
   <g>
    <polygon class="fil2 str0" points="0.2341,0.0378 0.6833,0.0378 1.1325,0.0378 1.3185,0.3554 0.6833,0.9362 0.0481,0.3554 "/>
    <polygon id="1" class="fil3" points="0.2341,0.0378 0.6833,0.0378 1.1325,0.0378 1.3185,0.3554 0.6833,0.9362 0.0481,0.3554 "/>
   </g>
   <path class="fil4" d="M1.2196 0.35l-0.2039 0.1864 -0.0031 -0.0298c-0.0018,-0.017 -0.0056,-0.0326 -0.0115,-0.0466 -0.0058,-0.0138 -0.0138,-0.0263 -0.0238,-0.0374 -0.0128,-0.0142 -0.0265,-0.0265 -0.0411,-0.0368 -0.0146,-0.0103 -0.0303,-0.0189 -0.0473,-0.0258 -0.0177,-0.0072 -0.037,-0.0142 -0.0581,-0.0211 -0.021,-0.0069 -0.0441,-0.0137 -0.0693,-0.0205l0 -0c-0.0364,-0.0095 -0.0627,-0.0179 -0.0788,-0.0251l-0.0001 0c-0.0096,-0.0043 -0.0171,-0.0094 -0.0223,-0.0152 -0.0064,-0.0071 -0.0096,-0.0152 -0.0096,-0.0242 0,-0.0064 0.0017,-0.0122 0.0052,-0.0175 0.0031,-0.0047 0.0075,-0.0087 0.0132,-0.0121 0.005,-0.0029 0.0106,-0.0051 0.017,-0.0065 0.006,-0.0013 0.0125,-0.002 0.0194,-0.002 0.0536,0 0.1302,0.024 0.2299,0.0719l0.0951 -0.1794 0.0614 0 0.1367 0.2334 -0.009 0.0082zm-1.0755 -0.0187l0.1305 -0.2229 0.2435 0c-0.0198,0.0118 -0.0363,0.0233 -0.0513,0.0407 -0.0043,0.005 -0.0084,0.0103 -0.0124,0.0158 -0.0118,0.0168 -0.0207,0.035 -0.0266,0.0546 -0.006,0.0198 -0.0089,0.0411 -0.0089,0.0639 0,0.0227 0.0031,0.043 0.0092,0.061 0.006,0.0176 0.0151,0.0331 0.0271,0.0465 0.0127,0.0141 0.0263,0.0263 0.0409,0.0368 0.0146,0.0104 0.03,0.019 0.0464,0.0258 0.0342,0.0142 0.0761,0.0276 0.1257,0.0402l0 0.0001c0.0172,0.0044 0.0317,0.0085 0.0437,0.0122 0.0126,0.0039 0.0228,0.0075 0.0307,0.0109 0.0094,0.004 0.0167,0.0088 0.0219,0.0142l-0 0c0.0065,0.0069 0.0098,0.0146 0.0098,0.0232 0,0.0064 -0.002,0.0122 -0.0061,0.0174 -0.0033,0.0042 -0.0079,0.0078 -0.0138,0.0107 -0.0051,0.0026 -0.0111,0.0045 -0.0178,0.0057 -0.0064,0.0011 -0.0134,0.0017 -0.0209,0.0017 -0.0407,0 -0.0835,-0.0075 -0.1281,-0.0226 -0.0397,-0.0134 -0.081,-0.0327 -0.1237,-0.058l-0.0438 0.0903c-0.094,-0.086 -0.1881,-0.1719 -0.2821,-0.2579l0.0062 -0.0105zm0.529 0.4998l-0.0651 -0.0595 -0.0491 -0.0449c0.0187,0.0082 0.0387,0.0153 0.0612,0.0188 0.0146,0.0023 0.0296,0.0035 0.045,0.0045 0.015,0.001 0.0306,0.0015 0.0467,0.0015 0.0065,0 0.0116,-0 0.0152,-0.0001 0.021,-0.0005 0.0416,-0.0033 0.0621,-0.0077l-0.0364 0.0333 -0.0694 0.0635 -0.0102 -0.0093z"/>
   <path class="fil5" d="M0.3005 0.1538l-0.105 0.1793 0.2104 0.1923 0.0392 -0.0807 0.0006 0.0004c-0.0083,-0.0074 -0.0162,-0.0154 -0.0239,-0.0239 -0.0162,-0.0179 -0.0283,-0.0387 -0.0363,-0.0623 -0.0078,-0.0228 -0.0117,-0.048 -0.0117,-0.0755 0,-0.0272 0.0036,-0.0528 0.0109,-0.0768 0.0056,-0.0187 0.0134,-0.0363 0.0233,-0.0528l-0.1074 0zm0.7447 0.2946l0.126 -0.1152 -0.105 -0.1794 -0.0084 0 -0.1013 0.1911c0.002,0.0013 0.004,0.0027 0.0059,0.0041 0.0178,0.0126 0.034,0.027 0.0487,0.0434 0.0133,0.0148 0.0239,0.0315 0.0318,0.0502 0.0008,0.0019 0.0016,0.0039 0.0023,0.0058z"/>
  </g>
 </g>
</svg>
