<?xml version="1.0" encoding="UTF-8"?>
<!DOCTYPE svg PUBLIC "-//W3C//DTD SVG 1.1//EN" "http://www.w3.org/Graphics/SVG/1.1/DTD/svg11.dtd">
<!-- Creator: CorelDRAW 2020 (64-Bit) -->
<svg xmlns="http://www.w3.org/2000/svg" xml:space="preserve" width="110.374mm" height="44.4501mm" version="1.1" style="shape-rendering:geometricPrecision; text-rendering:geometricPrecision; image-rendering:optimizeQuality; fill-rule:evenodd; clip-rule:evenodd"
viewBox="0 0 84.3847 33.9835"
 xmlns:xlink="http://www.w3.org/1999/xlink"
 xmlns:xodm="http://www.corel.com/coreldraw/odm/2003">
 <defs>
  <style type="text/css">
   <![CDATA[
    .str0 {stroke:white;stroke-width:0.4046;stroke-linecap:round;stroke-linejoin:round;stroke-miterlimit:2.61313}
    .str1 {stroke:white;stroke-width:1.8628;stroke-miterlimit:2.61313}
    .fil3 {fill:none}
    .fil0 {fill:none;fill-rule:nonzero}
    .fil4 {fill:black}
    .fil6 {fill:orange}
    .fil5 {fill:#FFCC00}
    .fil1 {fill:black;fill-rule:nonzero}
    .fil2 {fill:orange;fill-rule:nonzero}
   ]]>
  </style>
 </defs>
 <g id="Layer_x0020_1">
  <metadata id="CorelCorpID_0Corel-Layer"/>
  <g id="_1693121655040">
   <g>
    <g>
     <polygon class="fil0 str0" points="48.1437,8.7183 40.0804,8.7183 39.6784,10.6392 47.0269,10.6392 46.2451,14.5704 38.8966,14.5704 38.4946,16.5136 46.7812,16.5136 45.9995,20.4447 32.5532,20.4447 35.6803,4.7872 48.9255,4.7872 "/>
    </g>
    <g>
     <path id="1" class="fil0 str0" d="M60.1406 12.0911c0.7445,0.1787 1.329,0.5622 1.7534,1.1503 0.4244,0.5882 0.6365,1.2843 0.6365,2.0884 0,1.0125 -0.3089,1.906 -0.9269,2.6803 -0.618,0.7743 -1.4779,1.3737 -2.5798,1.7981 -1.1019,0.4244 -2.3527,0.6365 -3.7524,0.6365l-8.309 0 3.1271 -15.6575 7.9292 0c1.6976,0 3.0377,0.309 4.0205,0.927 0.9828,0.618 1.4742,1.4481 1.4742,2.4905 0,0.8785 -0.3127,1.6752 -0.9382,2.3899 -0.6254,0.7148 -1.4369,1.2136 -2.4346,1.4965zm-3.6185 -1.2732c0.417,0 0.7594,-0.1265 1.0275,-0.3797 0.268,-0.2531 0.4021,-0.5733 0.4021,-0.9605 0,-0.2829 -0.0856,-0.5025 -0.2569,-0.6589 -0.1713,-0.1563 -0.4132,-0.2346 -0.7259,-0.2346l-2.4793 0 -0.4467 2.2336 2.4793 0zm-1.1615 5.8297c0.5361,0 0.9791,-0.134 1.329,-0.4021 0.3499,-0.268 0.5249,-0.6105 0.5249,-1.0275 0,-0.2978 -0.1229,-0.5323 -0.3686,-0.7035 -0.2456,-0.1713 -0.5844,-0.2569 -1.0162,-0.2569l-2.457 0 -0.469 2.3899 2.4569 0z"/>
    </g>
    <g>
     <path id="2" class="fil0 str0" d="M73.5446 20.4447l-0.4021 -2.2113 -5.8744 0 -1.1838 2.2113 -5.2713 0 9.2024 -15.6575 5.3159 0 3.7748 15.6575 -5.5617 0zm-4.3109 -5.919l3.2611 0 -0.8265 -4.5565 -2.4347 4.5565z"/>
    </g>
    <polygon id="3" class="fil1" points="48.1437,8.7183 40.0804,8.7183 39.6784,10.6392 47.0269,10.6392 46.2451,14.5704 38.8966,14.5704 38.4946,16.5136 46.7812,16.5136 45.9995,20.4447 32.5532,20.4447 35.6803,4.7872 48.9255,4.7872 "/>
    <path id="4" class="fil1" d="M60.1406 12.0911c0.7445,0.1787 1.329,0.5622 1.7534,1.1503 0.4244,0.5882 0.6365,1.2843 0.6365,2.0884 0,1.0125 -0.3089,1.906 -0.9269,2.6803 -0.618,0.7743 -1.4779,1.3737 -2.5798,1.7981 -1.1019,0.4244 -2.3527,0.6365 -3.7524,0.6365l-8.309 0 3.1271 -15.6575 7.9292 0c1.6976,0 3.0377,0.309 4.0205,0.927 0.9828,0.618 1.4742,1.4481 1.4742,2.4905 0,0.8785 -0.3127,1.6752 -0.9382,2.3899 -0.6254,0.7148 -1.4369,1.2136 -2.4346,1.4965zm-3.6185 -1.2732c0.417,0 0.7594,-0.1265 1.0275,-0.3797 0.268,-0.2531 0.4021,-0.5733 0.4021,-0.9605 0,-0.2829 -0.0856,-0.5025 -0.2569,-0.6589 -0.1713,-0.1563 -0.4132,-0.2346 -0.7259,-0.2346l-2.4793 0 -0.4467 2.2336 2.4793 0zm-1.1615 5.8297c0.5361,0 0.9791,-0.134 1.329,-0.4021 0.3499,-0.268 0.5249,-0.6105 0.5249,-1.0275 0,-0.2978 -0.1229,-0.5323 -0.3686,-0.7035 -0.2456,-0.1713 -0.5844,-0.2569 -1.0162,-0.2569l-2.457 0 -0.469 2.3899 2.4569 0z"/>
    <path id="5" class="fil1" d="M73.5446 20.4447l-0.4021 -2.2113 -5.8744 0 -1.1838 2.2113 -5.2713 0 9.2024 -15.6575 5.3159 0 3.7748 15.6575 -5.5617 0zm-4.3109 -5.919l3.2611 0 -0.8265 -4.5565 -2.4347 4.5565z"/>
    <g>
     <polygon class="fil0 str0" points="35.9597,21.0633 37.4347,21.0633 36.6193,25.2666 35.402,25.2666 35.8457,22.9701 34.6345,24.8588 33.7291,24.8588 33.2555,22.9641 32.8057,25.2666 31.5886,25.2666 32.404,21.0633 33.879,21.0633 34.4966,23.2579 "/>
    </g>
    <g>
     <path id="1" class="fil0 str0" d="M42.2016 25.2666l-0.108 -0.5936 -1.5769 0 -0.3178 0.5936 -1.4151 0 2.4704 -4.2032 1.427 0 1.0134 4.2032 -1.4931 0zm-1.1572 -1.5889l0.8754 0 -0.2219 -1.2233 -0.6535 1.2233z"/>
    </g>
    <g>
     <path id="2" class="fil0 str0" d="M50.2604 22.2745c0,0.3718 -0.083,0.6995 -0.2489,0.9834 -0.1659,0.2838 -0.4047,0.5037 -0.7165,0.6596l0.5516 1.3491 -1.571 0 -0.2878 -1.0913 -0.5216 0 -0.2159 1.0913 -1.3911 0 0.8395 -4.2032 2.0327 0c0.4917,0 0.8694,0.1049 1.1333,0.3148 0.2638,0.2099 0.3957,0.5087 0.3957,0.8964zm-2.5783 0.8455l0.6416 0c0.1799,0 0.3228,-0.057 0.4287,-0.1709 0.106,-0.114 0.1589,-0.2648 0.1589,-0.4528 0,-0.1199 -0.034,-0.2128 -0.102,-0.2788 -0.0679,-0.0659 -0.1638,-0.0989 -0.2878,-0.0989l-0.6416 0 -0.1979 1.0014z"/>
    </g>
    <g>
     <polygon id="3" class="fil0 str0" points="56.4904,21.0633 56.2685,22.1606 55.0693,22.1606 54.4457,25.2666 53.0546,25.2666 53.6782,22.1606 52.485,22.1606 52.7069,21.0633 "/>
    </g>
    <g>
     <path id="4" class="fil0 str0" d="M60.136 21.0633l-0.8395 4.2032 -1.3911 0 0.8395 -4.2032 1.3911 0zm-0.5277 -1.3971l1.0134 0.3598 -0.9714 0.7735 -0.8514 -0.0599 0.8094 -1.0733z"/>
    </g>
    <g>
     <polygon id="5" class="fil0 str0" points="65.4846,21.0633 66.7437,21.0633 65.9043,25.2666 64.7411,25.2666 63.5179,23.12 63.0861,25.2666 61.821,25.2666 62.6605,21.0633 63.8237,21.0633 65.0529,23.2219 "/>
    </g>
    <g>
     <polygon id="6" class="fil0 str0" points="72.614,22.1186 70.4494,22.1186 70.3414,22.6343 72.3141,22.6343 72.1043,23.6896 70.1315,23.6896 70.0237,24.2113 72.2481,24.2113 72.0384,25.2666 68.4287,25.2666 69.2682,21.0633 72.8238,21.0633 "/>
    </g>
    <g>
     <polygon id="7" class="fil0 str0" points="78.8919,21.0633 78.748,21.9327 76.4155,24.1993 78.4182,24.1993 78.2383,25.2666 74.3828,25.2666 74.5267,24.3971 76.8712,22.1306 74.9765,22.1306 75.1503,21.0633 "/>
    </g>
    <polygon id="8" class="fil1" points="35.9597,21.0633 37.4347,21.0633 36.6193,25.2666 35.402,25.2666 35.8457,22.9701 34.6345,24.8588 33.7291,24.8588 33.2555,22.9641 32.8057,25.2666 31.5886,25.2666 32.404,21.0633 33.879,21.0633 34.4966,23.2579 "/>
    <path id="9" class="fil1" d="M42.2016 25.2666l-0.108 -0.5936 -1.5769 0 -0.3178 0.5936 -1.4151 0 2.4704 -4.2032 1.427 0 1.0134 4.2032 -1.4931 0zm-1.1572 -1.5889l0.8754 0 -0.2219 -1.2233 -0.6535 1.2233z"/>
    <path id="10" class="fil1" d="M50.2604 22.2745c0,0.3718 -0.083,0.6995 -0.2489,0.9834 -0.1659,0.2838 -0.4047,0.5037 -0.7165,0.6596l0.5516 1.3491 -1.571 0 -0.2878 -1.0913 -0.5216 0 -0.2159 1.0913 -1.3911 0 0.8395 -4.2032 2.0327 0c0.4917,0 0.8694,0.1049 1.1333,0.3148 0.2638,0.2099 0.3957,0.5087 0.3957,0.8964zm-2.5783 0.8455l0.6416 0c0.1799,0 0.3228,-0.057 0.4287,-0.1709 0.106,-0.114 0.1589,-0.2648 0.1589,-0.4528 0,-0.1199 -0.034,-0.2128 -0.102,-0.2788 -0.0679,-0.0659 -0.1638,-0.0989 -0.2878,-0.0989l-0.6416 0 -0.1979 1.0014z"/>
    <polygon id="11" class="fil1" points="56.4904,21.0633 56.2685,22.1606 55.0693,22.1606 54.4457,25.2666 53.0546,25.2666 53.6782,22.1606 52.485,22.1606 52.7069,21.0633 "/>
    <path id="12" class="fil1" d="M60.136 21.0633l-0.8395 4.2032 -1.3911 0 0.8395 -4.2032 1.3911 0zm-0.5277 -1.3971l1.0134 0.3598 -0.9714 0.7735 -0.8514 -0.0599 0.8094 -1.0733z"/>
    <polygon id="13" class="fil1" points="65.4846,21.0633 66.7437,21.0633 65.9043,25.2666 64.7411,25.2666 63.5179,23.12 63.0861,25.2666 61.821,25.2666 62.6605,21.0633 63.8237,21.0633 65.0529,23.2219 "/>
    <polygon id="14" class="fil1" points="72.614,22.1186 70.4494,22.1186 70.3414,22.6343 72.3141,22.6343 72.1043,23.6896 70.1315,23.6896 70.0237,24.2113 72.2481,24.2113 72.0384,25.2666 68.4287,25.2666 69.2682,21.0633 72.8238,21.0633 "/>
    <polygon id="15" class="fil1" points="78.8919,21.0633 78.748,21.9327 76.4155,24.1993 78.4182,24.1993 78.2383,25.2666 74.3828,25.2666 74.5267,24.3971 76.8712,22.1306 74.9765,22.1306 75.1503,21.0633 "/>
    <g>
     <path class="fil0 str0" d="M52.7903 26.1983c0.2736,0 0.5422,0.0607 0.8056,0.1822 0.2635,0.1214 0.479,0.283 0.6466,0.4849l-0.7749 0.8159c-0.0924,-0.1471 -0.2078,-0.266 -0.3463,-0.3567 -0.1385,-0.0906 -0.278,-0.1359 -0.4182,-0.1359 -0.154,0 -0.2942,0.0411 -0.4208,0.1232 -0.1266,0.0821 -0.2275,0.1958 -0.3028,0.3412 -0.0752,0.1454 -0.1129,0.307 -0.1129,0.4849 0,0.2258 0.0616,0.4113 0.1848,0.5567 0.1232,0.1454 0.2822,0.2181 0.4772,0.2181 0.13,0 0.2736,-0.0385 0.431,-0.1154 0.1573,-0.077 0.301,-0.1787 0.431,-0.3054l0.6106 0.7338c-0.2224,0.2223 -0.4815,0.3994 -0.7775,0.5311 -0.2959,0.1317 -0.5824,0.1976 -0.8595,0.1976 -0.3387,0 -0.6388,-0.0735 -0.9005,-0.2206 -0.2618,-0.1471 -0.4645,-0.3507 -0.6081,-0.6106 -0.1437,-0.26 -0.2155,-0.5542 -0.2155,-0.8827 0,-0.3831 0.095,-0.7304 0.2848,-1.0417 0.1898,-0.3113 0.449,-0.5559 0.7775,-0.7338 0.3284,-0.1779 0.691,-0.2668 1.0879,-0.2668z"/>
    </g>
    <g>
     <path id="1" class="fil0 str0" d="M56.4285 26.1983c0.3524,0 0.6645,0.0727 0.9366,0.218 0.2719,0.1454 0.4832,0.3464 0.6337,0.603 0.1505,0.2566 0.2258,0.5491 0.2258,0.8775 0,0.3865 -0.0958,0.7364 -0.2874,1.0494 -0.1915,0.313 -0.4532,0.5593 -0.7851,0.7389 -0.3318,0.1796 -0.6995,0.2694 -1.1032,0.2694 -0.3524,0 -0.6645,-0.0735 -0.9366,-0.2206 -0.2719,-0.1471 -0.4832,-0.3507 -0.6337,-0.6106 -0.1505,-0.26 -0.2258,-0.5542 -0.2258,-0.8827 0,-0.3865 0.0958,-0.7355 0.2874,-1.0468 0.1915,-0.3113 0.4532,-0.5551 0.7851,-0.7313 0.3318,-0.1761 0.6995,-0.2642 1.1032,-0.2642zm-0.0872 0.9904c-0.1471,0 -0.2865,0.0427 -0.4182,0.1283 -0.1317,0.0855 -0.2386,0.2027 -0.3207,0.3515 -0.0821,0.1489 -0.1232,0.3122 -0.1232,0.4901 0,0.1505 0.0308,0.2874 0.0924,0.4106 0.0615,0.1232 0.1445,0.2198 0.2489,0.2899 0.1044,0.0701 0.218,0.1052 0.3412,0.1052 0.1471,0 0.2848,-0.0437 0.4131,-0.1309 0.1283,-0.0872 0.231,-0.2061 0.3079,-0.3566 0.077,-0.1505 0.1155,-0.3164 0.1155,-0.4978 0,-0.2292 -0.0625,-0.4182 -0.1873,-0.5671 -0.1248,-0.1488 -0.2814,-0.2232 -0.4696,-0.2232z"/>
    </g>
    <g>
     <polygon id="2" class="fil0 str0" points="61.3342,26.2753 62.4118,26.2753 61.6934,29.8724 60.6979,29.8724 59.6511,28.0353 59.2817,29.8724 58.1989,29.8724 58.9173,26.2753 59.9128,26.2753 60.9648,28.1226 "/>
    </g>
    <g>
     <path id="3" class="fil0 str0" d="M64.5517 26.1983c0.2736,0 0.5422,0.0607 0.8056,0.1822 0.2635,0.1214 0.479,0.283 0.6466,0.4849l-0.7749 0.8159c-0.0924,-0.1471 -0.2078,-0.266 -0.3463,-0.3567 -0.1385,-0.0906 -0.278,-0.1359 -0.4182,-0.1359 -0.154,0 -0.2942,0.0411 -0.4208,0.1232 -0.1266,0.0821 -0.2275,0.1958 -0.3028,0.3412 -0.0752,0.1454 -0.1129,0.307 -0.1129,0.4849 0,0.2258 0.0616,0.4113 0.1848,0.5567 0.1232,0.1454 0.2822,0.2181 0.4772,0.2181 0.13,0 0.2736,-0.0385 0.431,-0.1154 0.1573,-0.077 0.301,-0.1787 0.431,-0.3054l0.6106 0.7338c-0.2224,0.2223 -0.4815,0.3994 -0.7775,0.5311 -0.2959,0.1317 -0.5824,0.1976 -0.8595,0.1976 -0.3387,0 -0.6388,-0.0735 -0.9005,-0.2206 -0.2618,-0.1471 -0.4645,-0.3507 -0.6081,-0.6106 -0.1437,-0.26 -0.2155,-0.5542 -0.2155,-0.8827 0,-0.3831 0.095,-0.7304 0.2848,-1.0417 0.1898,-0.3113 0.449,-0.5559 0.7775,-0.7338 0.3284,-0.1779 0.691,-0.2668 1.0879,-0.2668z"/>
    </g>
    <g>
     <polygon id="4" class="fil0 str0" points="69.4522,27.1784 67.5998,27.1784 67.5074,27.6197 69.1957,27.6197 69.016,28.5229 67.3278,28.5229 67.2354,28.9693 69.1392,28.9693 68.9596,29.8724 65.8704,29.8724 66.5888,26.2753 69.6318,26.2753 "/>
    </g>
    <g>
     <path id="5" class="fil0 str0" d="M72.5926 26.2753l-0.4772 2.381c-0.0787,0.4002 -0.2617,0.7116 -0.5491,0.9339 -0.2873,0.2224 -0.6397,0.3336 -1.057,0.3336 -0.5576,0 -0.9836,-0.2086 -1.2778,-0.626l0.6927 -0.7697c0.106,0.1334 0.2198,0.2343 0.3413,0.3028 0.1214,0.0684 0.23,0.1026 0.3258,0.1026 0.0855,0 0.1573,-0.0256 0.2155,-0.077 0.0581,-0.0513 0.0975,-0.1265 0.118,-0.2258l0.2822 -1.4163 -1.2213 0 0.1898 -0.939 2.4169 0z"/>
    </g>
    <g>
     <path id="6" class="fil0 str0" d="M74.8505 29.8724l-0.0924 -0.508 -1.3496 0 -0.272 0.508 -1.211 0 2.1142 -3.5971 1.2213 0 0.8672 3.5971 -1.2778 0zm-0.9904 -1.3599l0.7492 0 -0.1899 -1.0468 -0.5593 1.0468z"/>
    </g>
    <g>
     <polygon id="7" class="fil0 str0" points="77.7241,28.882 79.2224,28.882 79.0224,29.8724 76.3334,29.8724 77.0519,26.2753 78.2424,26.2753 "/>
    </g>
    <path id="8" class="fil2" d="M52.7903 26.1983c0.2736,0 0.5422,0.0607 0.8056,0.1822 0.2635,0.1214 0.479,0.283 0.6466,0.4849l-0.7749 0.8159c-0.0924,-0.1471 -0.2078,-0.266 -0.3463,-0.3567 -0.1385,-0.0906 -0.278,-0.1359 -0.4182,-0.1359 -0.154,0 -0.2942,0.0411 -0.4208,0.1232 -0.1266,0.0821 -0.2275,0.1958 -0.3028,0.3412 -0.0752,0.1454 -0.1129,0.307 -0.1129,0.4849 0,0.2258 0.0616,0.4113 0.1848,0.5567 0.1232,0.1454 0.2822,0.2181 0.4772,0.2181 0.13,0 0.2736,-0.0385 0.431,-0.1154 0.1573,-0.077 0.301,-0.1787 0.431,-0.3054l0.6106 0.7338c-0.2224,0.2223 -0.4815,0.3994 -0.7775,0.5311 -0.2959,0.1317 -0.5824,0.1976 -0.8595,0.1976 -0.3387,0 -0.6388,-0.0735 -0.9005,-0.2206 -0.2618,-0.1471 -0.4645,-0.3507 -0.6081,-0.6106 -0.1437,-0.26 -0.2155,-0.5542 -0.2155,-0.8827 0,-0.3831 0.095,-0.7304 0.2848,-1.0417 0.1898,-0.3113 0.449,-0.5559 0.7775,-0.7338 0.3284,-0.1779 0.691,-0.2668 1.0879,-0.2668z"/>
    <path id="9" class="fil2" d="M56.4285 26.1983c0.3524,0 0.6645,0.0727 0.9366,0.218 0.2719,0.1454 0.4832,0.3464 0.6337,0.603 0.1505,0.2566 0.2258,0.5491 0.2258,0.8775 0,0.3865 -0.0958,0.7364 -0.2874,1.0494 -0.1915,0.313 -0.4532,0.5593 -0.7851,0.7389 -0.3318,0.1796 -0.6995,0.2694 -1.1032,0.2694 -0.3524,0 -0.6645,-0.0735 -0.9366,-0.2206 -0.2719,-0.1471 -0.4832,-0.3507 -0.6337,-0.6106 -0.1505,-0.26 -0.2258,-0.5542 -0.2258,-0.8827 0,-0.3865 0.0958,-0.7355 0.2874,-1.0468 0.1915,-0.3113 0.4532,-0.5551 0.7851,-0.7313 0.3318,-0.1761 0.6995,-0.2642 1.1032,-0.2642zm-0.0872 0.9904c-0.1471,0 -0.2865,0.0427 -0.4182,0.1283 -0.1317,0.0855 -0.2386,0.2027 -0.3207,0.3515 -0.0821,0.1489 -0.1232,0.3122 -0.1232,0.4901 0,0.1505 0.0308,0.2874 0.0924,0.4106 0.0615,0.1232 0.1445,0.2198 0.2489,0.2899 0.1044,0.0701 0.218,0.1052 0.3412,0.1052 0.1471,0 0.2848,-0.0437 0.4131,-0.1309 0.1283,-0.0872 0.231,-0.2061 0.3079,-0.3566 0.077,-0.1505 0.1155,-0.3164 0.1155,-0.4978 0,-0.2292 -0.0625,-0.4182 -0.1873,-0.5671 -0.1248,-0.1488 -0.2814,-0.2232 -0.4696,-0.2232z"/>
    <polygon id="10" class="fil2" points="61.3342,26.2753 62.4118,26.2753 61.6934,29.8724 60.6979,29.8724 59.6511,28.0353 59.2817,29.8724 58.1989,29.8724 58.9173,26.2753 59.9128,26.2753 60.9648,28.1226 "/>
    <path id="11" class="fil2" d="M64.5517 26.1983c0.2736,0 0.5422,0.0607 0.8056,0.1822 0.2635,0.1214 0.479,0.283 0.6466,0.4849l-0.7749 0.8159c-0.0924,-0.1471 -0.2078,-0.266 -0.3463,-0.3567 -0.1385,-0.0906 -0.278,-0.1359 -0.4182,-0.1359 -0.154,0 -0.2942,0.0411 -0.4208,0.1232 -0.1266,0.0821 -0.2275,0.1958 -0.3028,0.3412 -0.0752,0.1454 -0.1129,0.307 -0.1129,0.4849 0,0.2258 0.0616,0.4113 0.1848,0.5567 0.1232,0.1454 0.2822,0.2181 0.4772,0.2181 0.13,0 0.2736,-0.0385 0.431,-0.1154 0.1573,-0.077 0.301,-0.1787 0.431,-0.3054l0.6106 0.7338c-0.2224,0.2223 -0.4815,0.3994 -0.7775,0.5311 -0.2959,0.1317 -0.5824,0.1976 -0.8595,0.1976 -0.3387,0 -0.6388,-0.0735 -0.9005,-0.2206 -0.2618,-0.1471 -0.4645,-0.3507 -0.6081,-0.6106 -0.1437,-0.26 -0.2155,-0.5542 -0.2155,-0.8827 0,-0.3831 0.095,-0.7304 0.2848,-1.0417 0.1898,-0.3113 0.449,-0.5559 0.7775,-0.7338 0.3284,-0.1779 0.691,-0.2668 1.0879,-0.2668z"/>
    <polygon id="12" class="fil2" points="69.4522,27.1784 67.5998,27.1784 67.5074,27.6197 69.1957,27.6197 69.016,28.5229 67.3278,28.5229 67.2354,28.9693 69.1392,28.9693 68.9596,29.8724 65.8704,29.8724 66.5888,26.2753 69.6318,26.2753 "/>
    <path id="13" class="fil2" d="M72.5926 26.2753l-0.4772 2.381c-0.0787,0.4002 -0.2617,0.7116 -0.5491,0.9339 -0.2873,0.2224 -0.6397,0.3336 -1.057,0.3336 -0.5576,0 -0.9836,-0.2086 -1.2778,-0.626l0.6927 -0.7697c0.106,0.1334 0.2198,0.2343 0.3413,0.3028 0.1214,0.0684 0.23,0.1026 0.3258,0.1026 0.0855,0 0.1573,-0.0256 0.2155,-0.077 0.0581,-0.0513 0.0975,-0.1265 0.118,-0.2258l0.2822 -1.4163 -1.2213 0 0.1898 -0.939 2.4169 0z"/>
    <path id="14" class="fil2" d="M74.8505 29.8724l-0.0924 -0.508 -1.3496 0 -0.272 0.508 -1.211 0 2.1142 -3.5971 1.2213 0 0.8672 3.5971 -1.2778 0zm-0.9904 -1.3599l0.7492 0 -0.1899 -1.0468 -0.5593 1.0468z"/>
    <polygon id="15" class="fil2" points="77.7241,28.882 79.2224,28.882 79.0224,29.8724 76.3334,29.8724 77.0519,26.2753 78.2424,26.2753 "/>
   </g>
   <g>
    <polygon class="fil3 str1" points="9.7447,4.029 20.8096,4.029 31.8744,4.029 36.4568,11.8527 20.8096,26.1588 5.1623,11.8526 "/>
    <polygon id="1" class="fil4" points="9.7447,4.029 20.8096,4.029 31.8744,4.029 36.4568,11.8527 20.8096,26.1588 5.1623,11.8526 "/>
   </g>
   <path class="fil5" d="M34.0215 11.72l-5.0229 4.5923 -0.0755 -0.7334c-0.0431,-0.4199 -0.1376,-0.8025 -0.2833,-1.1477 -0.1434,-0.3398 -0.3388,-0.6472 -0.5862,-0.922 -0.3147,-0.3497 -0.6521,-0.6519 -1.0118,-0.9064 -0.3588,-0.2538 -0.7474,-0.4655 -1.1655,-0.6347 -0.4354,-0.1762 -0.9126,-0.3492 -1.4314,-0.5187 -0.5168,-0.1689 -1.0857,-0.3375 -1.7063,-0.5058l0.0003 -0.0011c-0.8973,-0.235 -1.5446,-0.4409 -1.9417,-0.6174l-0.0015 0c-0.2377,-0.1057 -0.4213,-0.2304 -0.5502,-0.3736 -0.1585,-0.1761 -0.2377,-0.3745 -0.2377,-0.5952 0,-0.1575 0.0427,-0.3015 0.1281,-0.432 0.0755,-0.1154 0.1837,-0.2146 0.3244,-0.2974 0.1225,-0.0721 0.2622,-0.1255 0.4186,-0.1603 0.1486,-0.033 0.3078,-0.0495 0.4775,-0.0495 1.3202,0 3.2083,0.5904 5.6638,1.771l2.3429 -4.4195 1.5126 0 3.3672 5.7489 -0.2214 0.2025zm-26.4936 -0.4613l3.2157 -5.4901 5.9988 0c-0.4869,0.291 -0.894,0.575 -1.2632,1.0031 -0.106,0.1229 -0.2075,0.253 -0.3042,0.3901 -0.2916,0.4132 -0.5103,0.8613 -0.656,1.3445 -0.1466,0.4865 -0.22,1.0114 -0.22,1.5742 0,0.5583 0.0758,1.0591 0.2275,1.5021 0.1485,0.4338 0.3713,0.8158 0.6681,1.1456 0.3118,0.3465 0.6476,0.6487 1.0068,0.9064 0.3585,0.2572 0.7392,0.4693 1.1418,0.6362 0.8417,0.3489 1.8743,0.6791 3.0973,0.99l0 0.0015c0.4229,0.1083 0.7816,0.2083 1.0762,0.2995 0.3103,0.0961 0.5627,0.1857 0.7565,0.2688 0.2313,0.0992 0.4109,0.2162 0.5384,0.3511l-0.0007 0.0007c0.1602,0.1696 0.2404,0.3607 0.2404,0.5727 0,0.1576 -0.0503,0.3007 -0.1509,0.4292 -0.0815,0.1041 -0.1946,0.1925 -0.3391,0.2647 -0.1265,0.0632 -0.273,0.1099 -0.4389,0.1397 -0.1581,0.0284 -0.3295,0.0427 -0.5141,0.0427 -1.0037,0 -2.0558,-0.1852 -3.156,-0.5556 -0.9782,-0.3293 -1.9941,-0.8058 -3.0472,-1.4294l-1.0802 2.2241c-2.3165,-2.1174 -4.6328,-4.235 -6.9486,-6.353l0.1515 -0.2587zm13.0315 12.3119l-1.6035 -1.4661 -1.2085 -1.105c0.4617,0.2022 0.9521,0.377 1.5082,0.4632 0.3596,0.0557 0.7304,0.0852 1.109,0.1099 0.3695,0.024 0.7526,0.0361 1.1494,0.0361 0.1605,0 0.2856,-0.0011 0.3733,-0.0034 0.5174,-0.0131 1.0242,-0.0807 1.5303,-0.1902l-0.8973 0.8203 -1.7106 1.5639 -0.2503 -0.2288z"/>
   <path class="fil6" d="M11.3792 6.8862l-2.5876 4.4179 5.1818 4.7378 0.9657 -1.9882 0.0148 0.0092c-0.2034,-0.1822 -0.3998,-0.3783 -0.5888,-0.5883 -0.3979,-0.4421 -0.6964,-0.9536 -0.8952,-1.5341 -0.1924,-0.5621 -0.2886,-1.1822 -0.2886,-1.8601 0,-0.669 0.0895,-1.3002 0.2681,-1.8929 0.1385,-0.4596 0.3301,-0.8934 0.5745,-1.3013l-2.6447 0zm18.3441 7.2562l3.1042 -2.8382 -2.5876 -4.418 -0.2073 0 -2.4956 4.7076c0.0492,0.0329 0.0979,0.0665 0.1464,0.1008 0.4375,0.3096 0.8375,0.6656 1.1996,1.0679 0.3273,0.3637 0.5882,0.7759 0.7826,1.2365 0.02,0.0473 0.0392,0.0951 0.0577,0.1433z"/>
  </g>
  <rect class="fil3" x="-0" y="-0" width="84.3847" height="33.9835"/>
 </g>
</svg>
